<?xml version="1.0" standalone="no"?>
<!DOCTYPE svg PUBLIC "-//W3C//DTD SVG 20010904//EN"
 "http://www.w3.org/TR/2001/REC-SVG-20010904/DTD/svg10.dtd">
<svg version="1.0" xmlns="http://www.w3.org/2000/svg"
 width="243.000000pt" height="242.000000pt" viewBox="0 0 243.000000 242.000000"
 preserveAspectRatio="xMidYMid meet">

<g transform="translate(0.000000,242.000000) scale(0.100000,-0.100000)"
fill="#000000" stroke="none">
<path d="M1037 2264 c-299 -55 -559 -229 -727 -485 -67 -102 -112 -205 -148
-338 -22 -85 -25 -116 -25 -261 0 -145 3 -176 25 -261 79 -296 249 -525 500
-678 187 -114 452 -175 653 -153 53 6 66 10 38 11 -47 1 -45 -3 -57 153 l-5
68 32 2 c18 1 -31 5 -108 8 -155 8 -225 24 -332 75 -248 117 -415 322 -480
590 -24 102 -22 286 6 390 61 231 224 437 430 544 104 53 196 80 321 92 58 5
119 17 136 25 72 36 85 138 25 198 -30 29 -36 31 -119 33 -48 1 -122 -4 -165
-13z"/>
<path d="M1418 343 c7 -3 16 -2 19 1 4 3 -2 6 -13 5 -11 0 -14 -3 -6 -6z"/>
<path d="M1368 333 c6 -2 18 -2 25 0 6 3 1 5 -13 5 -14 0 -19 -2 -12 -5z"/>
<path d="M1408 103 c6 -2 18 -2 25 0 6 3 1 5 -13 5 -14 0 -19 -2 -12 -5z"/>
</g>
</svg>
